<svg width="216.577087" height="77.540039" viewBox="0 0 216.577 77.54" fill="none" xmlns="http://www.w3.org/2000/svg" xmlns:xlink="http://www.w3.org/1999/xlink">
	<desc>
			Created with Pixso.
	</desc>
	<defs/>
	<path id="The Wild Kingdom" d="M22.0115 0L0.377075 0L0 4.07617L0.0471191 4.07617C3.39362 2.48291 5.56177 0.749512 8.05988 0.749512L9.04968 0.749512L9.04968 30.1729L13.3389 30.1729L13.3389 0.749512L14.2816 0.749512C16.7797 0.749512 19.0421 2.52979 22.3885 4.12305L22.4828 4.12305L22.0115 0ZM48.6226 0L48.6226 14.1025L33.7755 14.1025L33.7755 0L29.5334 0L29.5334 30.1729L33.7755 30.1729L33.7755 14.8521L48.6226 14.8521L48.6226 30.1729L52.8646 30.1729L52.8646 0L48.6226 0ZM68.9704 29.4229L66.5666 29.4229L66.5666 14.8521L74.485 14.8521L74.485 14.1025L66.5666 14.1025L66.5666 0.749512L68.9704 0.749512C72.5526 0.749512 76.7946 1.03076 78.3972 5.29443L79.2927 5.29443L79.2455 0L62.3245 0L62.3245 30.1729L79.2455 30.1729L79.2927 24.8784L78.3972 24.8784C76.7946 29.1421 72.5526 29.4229 68.9704 29.4229ZM139.638 0C138.365 3.93555 137.328 6.93408 135.16 12.978L131.483 23.5664L123.376 0L123.188 0L114.892 23.5664L106.785 0L102.26 0L113.007 30.8286L113.148 30.8286L121.491 7.21533L129.692 30.8286L129.834 30.8286L135.961 13.2593C137.799 8.10547 139.119 4.31055 140.91 0L139.638 0ZM152.236 30.1729L152.236 0L147.994 0L147.994 30.1729L152.236 30.1729ZM177.802 24.8784C176.199 29.1421 171.957 29.4229 168.375 29.4229L165.971 29.4229L165.971 0L161.729 0L161.729 30.1729L178.65 30.1729L178.697 24.8784L177.802 24.8784ZM196.564 0L185.959 0L185.959 30.1729L195.857 30.1729C206.179 30.1729 212.636 24.5034 212.636 14.7583C212.636 5.20068 206.179 0 196.564 0ZM196.564 29.5166C193.217 29.5166 191.285 29.376 190.201 29.1421L190.201 0.702637L196.187 0.702637C203.351 0.702637 207.97 6.41895 207.97 14.9927C207.97 24.2695 203.822 29.5166 196.564 29.5166ZM92.5275 63.3438L92.9988 64.0933L99.9747 64.0933L99.9747 74.3071C98.1365 75.7598 95.3084 76.79 92.2448 76.79C85.1747 76.79 80.5084 70.6528 80.5084 61.8916C80.5084 52.896 84.7504 47.0396 91.3963 47.0396C93.5645 47.0396 94.8371 48.3511 95.7798 50.0845C97.288 52.8022 100.917 53.4111 103.133 51.2559L103.227 51.209C100.729 48.4448 96.6753 46.3833 91.7734 46.3833C82.6766 46.3833 75.8422 52.5679 75.8422 62.1724C75.8422 71.8706 82.2995 77.54 92.0562 77.54C97.4294 77.54 101.2 75.7129 103.887 73.7451L103.887 63.3438L92.5275 63.3438ZM162.053 46.3833C153.003 46.3833 146.027 52.5679 146.027 62.2661C146.027 71.7773 152.862 77.54 161.534 77.54C170.537 77.54 177.56 71.3555 177.56 61.6572C177.56 52.146 170.725 46.3833 162.053 46.3833ZM7.1936 77.0244L7.1936 46.8521L2.9516 46.8521L2.9516 77.0244L7.1936 77.0244ZM25.7643 46.9458L25.7643 46.8521L24.1618 46.8521C21.8522 49.0537 18.9771 51.7246 14.4993 55.9414L8.51337 61.5635L18.9299 77.0244L24.5389 77.0244L12.0013 59.4082L15.0178 56.5503C18.8828 52.896 22.2293 49.8037 25.7643 46.9458ZM36.9929 77.0244L36.9929 46.8521L32.7508 46.8521L32.7508 77.0244L36.9929 77.0244ZM66.7534 46.8521L66.7534 70.231L50.1152 46.8521L45.0719 46.8521L45.0719 46.9927L47.0986 49.8037L47.0986 76.9775L47.947 76.9775L47.947 50.9751L67.2248 77.54L67.6019 77.54L67.6019 46.8521L66.7534 46.8521ZM122.949 46.8521L112.344 46.8521L112.344 77.0244L122.242 77.0244C132.565 77.0244 139.022 71.3555 139.022 61.6104C139.022 52.0522 132.565 46.8521 122.949 46.8521ZM213.702 46.8521L209.884 46.8521L201.07 69.0596L191.031 46.8521L186.459 46.8521L186.459 46.9927L187.354 48.9604L184.715 76.9775L185.516 76.9775L188.014 50.5063L199.326 75.1504L199.515 75.1504L209.696 49.4756L212.288 77.0244L216.577 77.0244L213.702 46.8521ZM161.959 76.8838C155.313 76.8838 150.694 70.8398 150.694 61.7979C150.694 52.896 155.03 47.0396 161.723 47.0396C168.275 47.0396 172.894 53.083 172.894 62.1255C172.894 71.0273 168.557 76.8838 161.959 76.8838ZM122.949 76.3687C119.603 76.3687 117.67 76.228 116.586 75.9937L116.586 47.5547L122.572 47.5547C129.737 47.5547 134.356 53.2705 134.356 61.8447C134.356 71.1211 130.208 76.3687 122.949 76.3687Z" fill="#C1AB81" fill-opacity="1.000000" fill-rule="evenodd"/>
</svg>
